<?xml version="1.0" encoding="UTF-8"?>
<svg width="90px" height="90px" viewBox="0 0 90 90" version="1.1" xmlns="http://www.w3.org/2000/svg" xmlns:xlink="http://www.w3.org/1999/xlink">
    <title>img_empty_journal</title>
    <defs>
        <circle id="path-1" cx="45" cy="45" r="45"></circle>
    </defs>
    <g id="iOS" stroke="none" stroke-width="1" fill="none" fill-rule="evenodd">
        <g id="Personal---紅磚瓦屋-empty" transform="translate(-143.000000, -1764.000000)">
            <g id="journal" transform="translate(0.000000, 1734.000000)">
                <g id="empty-state" transform="translate(0.000000, 30.000000)">
                    <g id="img_empty_journal" transform="translate(143.000000, 0.000000)">
                        <mask id="mask-2" fill="white">
                            <use xlink:href="#path-1"></use>
                        </mask>
                        <use id="Oval" fill="#E3E3E3" xlink:href="#path-1"></use>
                        <g id="Group-12" mask="url(#mask-2)">
                            <g transform="translate(8.000000, 19.000000)">
                                <polygon id="Fill-1" fill="#F2F2F2" points="167.247069 12 157.695321 21.5514306 121.25447 21.5514306 121.25447 40.2342883 117.286008 40.2342883 117.286008 29.2791453 96.0431598 29.2791453 96.0431598 24.151233 71.4472624 24.151233 71.4472624 32.3038681 65.2582387 32.3038681 65.2582387 24.151233 51.7492906 24.151233 51.7492906 45.7936241 37 45.7936241 37 71.3776716 237 71.3776716 237 54.6330474 222.147295 54.6330474 222.147295 28.119536 211.640864 17.6146912 201.134433 28.119536 201.134433 45.9343126 197.93841 45.9343126 197.93841 12"></polygon>
                                <g id="Group-11" stroke-width="1" fill="none" transform="translate(0.000000, 0.985000)">
                                    <g id="Group-5">
                                        <path d="M22.0023674,55.015 C8.2671013,54.986232 -4.36210379,44.847 1.45100066,34.283159 C6.27744847,25.5123213 13.6858573,27.7866742 13.3389564,21.310679 C12.9920554,14.8346839 10.4063237,9.18552555 15.6839941,3.14737879 C22.3326145,-4.45901542 38.0578476,1.77772347 35.2499611,21.9657179 C34.1439001,29.9169689 40.3878027,27.7497928 43.8253899,35.7801654 C49.15365,48.2271643 35.3869618,55.0423422 22.0023674,55.015" id="Fill-2" fill="#FFFFFF"></path>
                                        <polygon id="Fill-4" fill="#F2F2F2" points="22 75.015 24 75.015 24 19.015 22 19.015"></polygon>
                                        <path d="M23.8285849,32.015 L23,31.8851634 C23.928905,26.4965441 30.3300803,23.1548548 30.6020778,23.015 L31,23.7210866 C30.9370376,23.7535458 24.6894905,27.0190964 23.8285849,32.015" id="Fill-6" fill="#F2F2F2"></path>
                                        <path d="M22.020139,45.015 C21.2998865,40.1849032 16.053113,37.011591 16,36.9803619 L16.4705716,36.015 C16.7038718,36.1536133 22.1998298,39.4710175 23,44.8374874 L22.020139,45.015 Z" id="Fill-7" fill="#F2F2F2"></path>
                                    </g>
                                </g>
                            </g>
                        </g>
                    </g>
                </g>
            </g>
        </g>
    </g>
</svg>