<?xml version="1.0" encoding="UTF-8"?>
<svg width="90px" height="90px" viewBox="0 0 90 90" version="1.1" xmlns="http://www.w3.org/2000/svg" xmlns:xlink="http://www.w3.org/1999/xlink">
    <title>img_empty_ppl</title>
    <defs>
        <circle id="path-1" cx="45" cy="45" r="45"></circle>
    </defs>
    <g id="iOS" stroke="none" stroke-width="1" fill="none" fill-rule="evenodd">
        <g id="Personal---Fans-empty" transform="translate(-143.000000, -274.000000)">
            <g id="empty-state" transform="translate(65.000000, 274.000000)">
                <g id="img_empty_ppl" transform="translate(78.000000, 0.000000)">
                    <mask id="mask-2" fill="white">
                        <use xlink:href="#path-1"></use>
                    </mask>
                    <use id="Oval" fill="#E3E3E3" xlink:href="#path-1"></use>
                    <g id="Group-2" mask="url(#mask-2)">
                        <g transform="translate(12.000000, 20.000000)" id="Combined-Shape">
                            <path d="M46,24 C57.045695,24 66,31.7535482 66,41.3180346 C66,49.1888099 59.9362177,49.9694168 51.6331666,49.9990659 L50.6777713,49.999542 C49.1771827,49.9963089 47.6108305,49.977052 46,49.977052 L45.6555106,49.9773338 C44.1657404,49.9797212 42.7156324,49.9965398 41.3222287,49.999542 L40.3668334,49.9990659 C32.0637823,49.9694168 26,49.1888099 26,41.3180346 C26,31.7535482 34.954305,24 46,24 Z M46,0 C52.0751322,0 57,4.92486775 57,11 C57,17.0751322 52.0751322,22 46,22 C39.9248678,22 35,17.0751322 35,11 C35,4.92486775 39.9248678,0 46,0 Z" fill="#BEBEBE"></path>
                            <path d="M20,24 C31.045695,24 40,31.7535482 40,41.3180346 C40,49.1888099 33.9362177,49.9694168 25.6331666,49.9990659 L24.6777713,49.999542 C23.1771827,49.9963089 21.6108305,49.977052 20,49.977052 L19.6555106,49.9773338 C18.1657404,49.9797212 16.7156324,49.9965398 15.3222287,49.999542 L14.3668334,49.9990659 C6.06378228,49.9694168 0,49.1888099 0,41.3180346 C0,31.7535482 8.954305,24 20,24 Z M20,0 C26.0751322,0 31,4.92486775 31,11 C31,17.0751322 26.0751322,22 20,22 C13.9248678,22 9,17.0751322 9,11 C9,4.92486775 13.9248678,0 20,0 Z" fill="#FFFFFF"></path>
                        </g>
                    </g>
                </g>
            </g>
        </g>
    </g>
</svg>