<?xml version="1.0" encoding="UTF-8"?>
<svg width="90px" height="90px" viewBox="0 0 90 90" version="1.1" xmlns="http://www.w3.org/2000/svg" xmlns:xlink="http://www.w3.org/1999/xlink">
    <title>img_empty_itinerary</title>
    <defs>
        <circle id="path-1" cx="45" cy="45" r="45"></circle>
    </defs>
    <g id="iOS" stroke="none" stroke-width="1" fill="none" fill-rule="evenodd">
        <g id="Personal---紅磚瓦屋-empty" transform="translate(-143.000000, -1374.000000)">
            <g id="itinerary" transform="translate(0.000000, 1344.000000)">
                <g id="empty-state" transform="translate(0.000000, 30.000000)">
                    <g id="img_empty_itinerary" transform="translate(143.000000, 0.000000)">
                        <mask id="mask-2" fill="white">
                            <use xlink:href="#path-1"></use>
                        </mask>
                        <use id="Oval" fill="#E3E3E3" xlink:href="#path-1"></use>
                        <g id="Group-14" mask="url(#mask-2)">
                            <g transform="translate(-205.714286, -110.571429)" id="Group-13">
                                <g transform="translate(0.000000, 0.158143)" id="Group-12" fill="#FFFFFF">
                                    <path d="M225.090683,170.717873 L242.886254,152.809802 L259.392897,166.357373 C259.69954,166.608731 260.069183,166.730873 260.436897,166.730873 C260.913254,166.730873 261.384469,166.525802 261.710397,166.129159 C262.28704,165.426516 262.184826,164.388945 261.482183,163.812302 L245.217897,150.463373 L259.988183,135.599231 C270.762469,143.379731 283.537326,147.888088 296.768612,148.613873 L296.768612,213.818231 C284.146112,213.038445 272.010897,208.379659 262.074254,200.404373 L225.090683,170.717873 Z M232.01554,113.265731 L253.789754,130.743088 L239.145469,145.480588 L224.19004,133.205873 C223.486754,132.629231 222.449826,132.730802 221.87254,133.434088 C221.295897,134.136731 221.398112,135.174302 222.100754,135.750945 L236.813826,147.826373 L218.958469,165.795516 L187.377469,140.445731 L232.01554,113.265731 Z M150.093683,191.246231 L120.241326,212.164159 L101.69104,192.620016 L132.802112,173.676945 L150.093683,191.246231 Z M148.911469,242.369445 L125.68504,217.899088 L155.655683,196.897588 L178.390969,219.999945 L148.911469,242.369445 Z M115.403183,267.795088 L91.0678258,242.156659 L122.276612,220.287302 L145.612326,244.872088 L115.403183,267.795088 Z M65.160683,214.862873 L78.287183,206.870873 C78.5321116,206.844516 78.7744687,206.766088 78.9962544,206.624659 C79.1987544,206.496088 79.3607544,206.329588 79.484183,206.141873 L98.0942544,194.810231 L116.83354,214.553016 L85.6241116,236.422373 L65.160683,214.862873 Z M62.766683,178.050302 L94.6864687,158.111445 L94.6935401,158.123016 L96.0602544,157.253873 L129.398826,136.428516 L143.233112,158.169945 L76.1194687,199.035088 L62.766683,178.050302 Z M46.8045401,152.963445 L78.7648258,133.088873 L92.9186116,155.333659 L60.9994687,175.272516 L46.8045401,152.963445 Z M181.009326,135.168516 L166.904397,113.000231 L203.334469,90.2443734 L225.530397,108.059873 L181.009326,135.168516 Z M179.031897,70.7362305 L200.615183,88.0612305 L165.13654,110.222445 L151.074683,88.1216591 L179.031897,70.7362305 Z M116.317969,109.735802 L148.278254,89.8605876 L162.344612,111.967159 L130.424183,131.905373 L116.317969,109.735802 Z M95.7118258,153.588945 L81.5612544,131.349945 L113.52154,111.474731 L127.630969,133.650088 L95.7118258,153.588945 Z M146.045612,156.457373 L132.19204,134.683802 L164.111826,114.744945 L178.196826,136.881088 L146.045612,156.457373 Z M203.671969,55.4130876 C204.198469,55.1000162 216.348469,47.9945162 234.873683,45.1672305 C245.949469,43.4765162 257.043254,43.6571591 267.843254,45.7040162 C281.364469,48.2658019 294.487754,53.7828019 306.847969,62.1013734 C307.854683,62.7789448 308.859469,63.4539448 309.861683,64.1263734 L247.37404,115.566516 L186.07054,66.3590162 L203.671969,55.4130876 Z M367.110683,101.428802 L342.480897,124.390373 C331.676397,134.463945 317.595254,140.313302 302.832683,140.859088 C288.075254,141.402302 273.605826,136.616873 262.087112,127.376445 L262.081326,127.371945 C262.078754,127.370016 262.076183,127.368088 262.074254,127.366159 L250.324754,117.935445 L313.075969,66.2780162 C332.800754,79.4598019 351.511754,91.5358734 367.110683,101.428802 L367.110683,101.428802 Z M371.095754,170.868945 L342.480897,197.427945 C332.105183,207.101659 318.70804,212.875802 304.588326,213.803445 L304.588326,148.602945 C316.942112,147.883588 328.820183,143.868945 339.020397,137.063659 L371.095754,170.868945 Z M300.55954,221.758802 C301.411969,221.758802 302.266326,221.743373 303.121969,221.711231 C319.762326,221.095373 335.634469,214.502873 347.808254,203.153873 L424.697826,131.787731 C426.281183,130.318802 426.372469,127.845088 424.90354,126.262373 C423.434612,124.679016 420.960897,124.587731 419.378183,126.056659 L376.828112,165.549302 L345.310112,132.331588 C346.159969,131.611588 346.996326,130.872945 347.81404,130.110516 L373.944254,105.748802 C395.211254,119.154945 409.217183,127.596945 409.474326,127.751873 C411.325112,128.865302 413.728112,128.268088 414.840897,126.417945 C415.953683,124.567802 415.357112,122.165445 413.506969,121.052016 C413.052469,120.778802 369.792683,94.7025876 319.38304,61.0863019 L384.416397,7.55044479 C385.205183,6.90051622 385.318969,5.73308764 384.66904,4.94365907 C384.019112,4.1542305 382.852326,4.04044479 382.062254,4.69101622 L316.16554,58.9372305 C314.521112,57.8366591 312.870254,56.7290162 311.213612,55.6136591 C297.969469,46.7004448 283.867112,40.7810162 269.299326,38.0212305 C257.626969,35.8091591 245.647326,35.6124448 233.69404,37.4368734 C213.326397,40.5450876 200.16004,48.3982305 199.609112,48.7312305 L132.939683,90.1903734 L107.924183,50.6655876 L177.139969,7.71758764 C178.974683,6.57908764 179.539754,4.16837336 178.400612,2.33365907 C177.262112,0.49830193 174.85204,-0.0654837842 173.016683,1.07301622 L103.742397,44.0576591 L78.408683,4.03015907 C77.2541116,2.20508764 74.8382544,1.66187336 73.0144687,2.81708764 C71.1900401,3.97165907 70.6468258,6.38751622 71.8013973,8.21194479 L97.097183,48.1809448 L57.965183,72.4623019 L44.4420401,49.3837305 C43.637183,48.0112305 41.8725401,47.5503019 40.4993973,48.3545162 C39.1268973,49.1587305 38.6666116,50.9240162 39.4708258,52.2971591 L53.0678973,75.5010876 L5.24125441,105.177945 C3.40654012,106.316445 2.8414687,108.727159 3.98061155,110.561873 C4.72054012,111.755016 5.99854012,112.410731 7.30675441,112.410731 C8.01004012,112.410731 8.72232584,112.221088 9.36454012,111.822516 L57.0233973,82.2504448 L67.3457544,99.8666591 C67.8818973,100.782088 68.8448973,101.291231 69.8342544,101.291231 C70.3292544,101.291231 70.8300401,101.163945 71.2883973,100.895873 C72.6615401,100.091659 73.1218258,98.3263734 72.3176116,96.9538734 L61.920683,79.2116591 L101.279612,54.7888734 L126.298969,94.3200876 L8.25882584,167.725373 C6.42539727,168.865802 5.86289727,171.277159 7.00332584,173.110588 C7.74389727,174.301802 9.02061155,174.956231 10.3275401,174.956231 C11.0327544,174.956231 11.7463258,174.765302 12.3885401,174.366088 L44.0081116,154.702373 L58.2062544,177.016588 L13.2088258,205.124231 C12.4380401,205.606373 12.2033973,206.622088 12.6848973,207.392873 C12.9973258,207.893016 13.5334687,208.167516 14.0831116,208.167516 C14.3807544,208.167516 14.6822544,208.086516 14.9535401,207.917445 L59.9734687,179.795016 L73.3063258,200.748302 L1.87718298,244.240802 C0.0328258381,245.363873 -0.552174162,247.769445 0.570897267,249.613802 C1.30761155,250.823016 2.59525441,251.490945 3.91375441,251.490945 C4.60675441,251.490945 5.30875441,251.306445 5.94389727,250.919445 L61.5638973,217.053088 L82.215683,238.809945 L31.8015401,274.136873 C30.033683,275.375659 29.6042544,277.814016 30.843683,279.582516 C31.604183,280.668945 32.8166116,281.249445 34.0489687,281.249445 C34.8236116,281.249445 35.6066116,281.019302 36.2899687,280.541016 L87.6593973,244.544873 L112.10404,270.299016 L102.288254,277.747159 C101.473112,278.365588 101.313683,279.526588 101.932112,280.341731 C102.296612,280.821945 102.849469,281.074588 103.408754,281.074588 C103.798969,281.074588 104.19304,280.951802 104.526683,280.697873 L114.66904,273.001588 L144.105469,304.013659 C144.510469,304.439231 145.054326,304.654588 145.598826,304.654588 C146.107326,304.654588 146.617112,304.466873 147.01504,304.089516 C147.839826,303.307159 147.873254,302.004088 147.090897,301.179945 L117.968183,270.498302 L148.177969,247.575302 L181.349397,282.522302 C181.753754,282.949159 182.298254,283.163873 182.842112,283.163873 C183.350612,283.163873 183.860397,282.976802 184.258326,282.598159 C185.083112,281.815802 185.11654,280.512731 184.334826,279.688588 L151.476469,245.072016 L181.011254,222.661373 L239.004683,281.588231 C239.769683,282.365445 240.780254,282.755659 241.791469,282.755659 C242.782112,282.755659 243.772754,282.382159 244.533897,281.632588 C246.072897,280.117373 246.092826,277.642373 244.577612,276.102731 L139.662683,169.499016 L180.280969,144.767016 C180.31954,144.800445 180.354897,144.835802 180.394754,144.867945 L216.789469,174.081302 C216.792683,174.084516 216.79654,174.087088 216.799754,174.089659 L257.17954,206.502516 C266.176969,213.724373 276.773183,218.531659 287.967897,220.601016 L287.967897,315.000088 L291.671397,315.000088 L291.671397,287.444016 C291.983826,287.385516 292.284683,287.247302 292.541826,287.023588 L390.480469,201.891302 C391.253183,201.220159 391.334826,200.050802 390.664326,199.278731 C389.993183,198.507302 388.82254,198.425659 388.051112,199.096159 L291.671397,282.872016 L291.671397,221.184731 C294.607326,221.564659 297.575397,221.758802 300.55954,221.758802 L300.55954,221.758802 Z" id="Fill-10"></path>
                                </g>
                            </g>
                        </g>
                        <g id="pin-1" transform="translate(2.000000, 15.785714)">
                            <path d="M8.28571429,20.8571429 C13.4285714,15.1260359 16,10.8403216 16,8 C16,3.73951764 12.5461966,0.285714286 8.28571429,0.285714286 C4.02523193,0.285714286 0.571428571,3.73951764 0.571428571,8 C0.571428571,10.8403216 3.14285714,15.1260359 8.28571429,20.8571429 Z" id="Combined-Shape" fill="#BEBEBE"></path>
                            <g id="0.icon_pin/icon_default" transform="translate(1.857143, 1.571429)">
                                <g id="Group" transform="translate(3.214286, 3.214286)" fill="#FFFFFF">
                                    <circle id="Oval-3" cx="3.21428571" cy="3.21428571" r="3.21428571"></circle>
                                </g>
                                <rect id="size" fill-opacity="0" fill="#D8D8D8" x="0" y="0" width="12.8571429" height="12.8571429"></rect>
                            </g>
                        </g>
                        <line x1="10.2857143" y1="34.7142857" x2="47.5714286" y2="62.3571429" id="Line" stroke-opacity="0.5" stroke="#BEBEBE" stroke-width="3" stroke-linecap="round"></line>
                        <line x1="68.1428571" y1="45" x2="47.5714286" y2="62.3571429" id="Line" stroke-opacity="0.5" stroke="#BEBEBE" stroke-width="3" stroke-linecap="round"></line>
                        <g id="pin-1-copy" transform="translate(39.285714, 43.428571)">
                            <path d="M8.28571429,20.8571429 C13.4285714,15.1260359 16,10.8403216 16,8 C16,3.73951764 12.5461966,0.285714286 8.28571429,0.285714286 C4.02523193,0.285714286 0.571428571,3.73951764 0.571428571,8 C0.571428571,10.8403216 3.14285714,15.1260359 8.28571429,20.8571429 Z" id="Combined-Shape" fill="#BEBEBE"></path>
                            <g id="0.icon_pin/icon_default" transform="translate(1.857143, 1.571429)">
                                <g id="Group" transform="translate(3.214286, 3.214286)" fill="#FFFFFF">
                                    <circle id="Oval-3" cx="3.21428571" cy="3.21428571" r="3.21428571"></circle>
                                </g>
                                <rect id="size" fill-opacity="0" fill="#D8D8D8" x="0" y="0" width="12.8571429" height="12.8571429"></rect>
                            </g>
                        </g>
                        <g id="pin-1-copy-2" transform="translate(59.857143, 24.142857)">
                            <path d="M8.28571429,20.8571429 C13.4285714,15.1260359 16,10.8403216 16,8 C16,3.73951764 12.5461966,0.285714286 8.28571429,0.285714286 C4.02523193,0.285714286 0.571428571,3.73951764 0.571428571,8 C0.571428571,10.8403216 3.14285714,15.1260359 8.28571429,20.8571429 Z" id="Combined-Shape" fill="#BEBEBE"></path>
                            <g id="0.icon_pin/icon_default" transform="translate(1.857143, 1.571429)">
                                <g id="Group" transform="translate(3.214286, 3.214286)" fill="#FFFFFF">
                                    <circle id="Oval-3" cx="3.21428571" cy="3.21428571" r="3.21428571"></circle>
                                </g>
                                <rect id="size" fill-opacity="0" fill="#D8D8D8" x="0" y="0" width="12.8571429" height="12.8571429"></rect>
                            </g>
                        </g>
                    </g>
                </g>
            </g>
        </g>
    </g>
</svg>